<svg xmlns="http://www.w3.org/2000/svg" viewBox="0 0 64 64"><defs><style>.cls-1{fill:#f6fafd;}.cls-2{fill:#cdd2e1;}.cls-3{fill:#ffca6b;}.cls-4{fill:#ffe474;}.cls-5{fill:#5ce0bf;}.cls-6{fill:#8ed8f8;}.cls-7{fill:#393045;}</style></defs><title>10-list</title><g id="_10-list" data-name="10-list"><path class="cls-1" d="M4,63H48V1H12L4,9Z"/><polygon class="cls-2" points="12 1 12 9 4 9 12 1"/><polygon class="cls-3" points="57 17 60 25 54 25 57 17"/><rect class="cls-3" x="54" y="53" width="6" height="10"/><rect class="cls-4" x="54" y="25" width="6" height="28"/><rect class="cls-3" x="9" y="15" width="8" height="8"/><rect class="cls-5" x="9" y="28" width="8" height="8"/><rect class="cls-6" x="9" y="41" width="8" height="8"/><path class="cls-7" d="M48,0H12a1,1,0,0,0-.707.293l-8,8A1,1,0,0,0,3,9V63a1,1,0,0,0,1,1H48a1,1,0,0,0,1-1V1A1,1,0,0,0,48,0ZM11,3.414V8H6.414ZM47,62H5V10h7a1,1,0,0,0,1-1V2H47Z"/><path class="cls-7" d="M9,14a1,1,0,0,0-1,1v8a1,1,0,0,0,1,1h8a1,1,0,0,0,1-1V15a1,1,0,0,0-1-1Zm5.586,2L10,20.586V16Zm-3.172,6L16,17.414V22Z"/><rect class="cls-7" x="22" y="16" width="22" height="2"/><rect class="cls-7" x="20" y="20" width="24" height="2"/><path class="cls-7" d="M17,27H9a1,1,0,0,0-1,1v8a1,1,0,0,0,1,1h8a1,1,0,0,0,1-1V28A1,1,0,0,0,17,27Zm-1,8H10V29h6Z"/><rect class="cls-7" x="22" y="29" width="22" height="2"/><rect class="cls-7" x="20" y="33" width="24" height="2"/><path class="cls-7" d="M17,40H9a1,1,0,0,0-1,1v8a1,1,0,0,0,1,1h8a1,1,0,0,0,1-1V41A1,1,0,0,0,17,40Zm-1,8H10V42h6Z"/><rect class="cls-7" x="22" y="42" width="22" height="2"/><rect class="cls-7" x="20" y="46" width="24" height="2"/><path class="cls-7" d="M60.93,24.651l.007,0-3-8a1,1,0,0,0-1.874,0l-3,8,.007,0A.991.991,0,0,0,53,25V63a1,1,0,0,0,1,1h6a1,1,0,0,0,1-1V25A.991.991,0,0,0,60.93,24.651ZM59,52H55V26h4ZM57,19.848,58.557,24H55.443ZM55,62V54h4v8Z"/></g></svg>
