<svg xmlns="http://www.w3.org/2000/svg" xmlns:xlink="http://www.w3.org/1999/xlink" width="718" height="509.249" viewBox="0 0 718 509.249"><defs><style>.a,.ad,.ae,.aq,.ar,.d,.f,.h,.i,.o,.s,.v{fill:none;}.b{clip-path:url(#a);}.c{fill:#fcdcd7;opacity:0.3;isolation:isolate;}.ap,.d,.e,.f,.i,.u{stroke:#ff7e71;}.d,.e{stroke-width:0.947px;}.ap,.e,.j{fill:#fff;}.g{fill:#fbf8f8;}.g,.h{stroke:#24338a;}.g,.h,.i{stroke-width:0.805px;}.k{fill:#560703;}.l{fill:#dda9ad;}.m{fill:url(#b);}.n{fill:#da9aa2;}.o,.s{stroke:#e9e9e9;}.ad,.ae,.aq,.ar,.o,.s,.v{stroke-miterlimit:10;}.o{stroke-width:0.485px;}.p{fill:#e9e9e9;}.q{fill:url(#c);}.r{fill:url(#d);}.s{stroke-width:0.243px;}.t{fill:#283a83;}.u{fill:#fff3f3;}.v{stroke:#acbce2;stroke-width:1.054px;}.w{fill:#acbce2;}.x{fill:#24338a;}.y{fill:#82a0dd;}.z{fill:#0b2e3e;}.aa{fill:#143f53;}.ab{fill:#009c8e;}.ac{fill:#ffe056;}.ad{stroke:#fffbf0;}.ad,.ae{stroke-width:0.475px;}.ae{stroke:#2c1210;}.af{fill:#ffc9a1;}.ag{fill:#2c1210;}.ah{fill:#f7b98f;}.ai{fill:#07d389;}.aj{fill:#414042;}.ak{fill:#eea987;}.al{fill:#eea886;}.am{fill:#b9b9b9;}.an{fill:#1d3b54;}.ao{fill:#ff625a;}.ap{stroke-width:0.849px;}.aq,.ar{stroke:#ff8080;}.aq{stroke-width:0.519px;}.ar{stroke-width:0.638px;}</style><clipPath id="a"><rect class="a" width="520.185" height="509.248"/></clipPath><linearGradient id="b" x1="-0.525" y1="0.048" x2="1.071" y2="0.929" gradientUnits="objectBoundingBox"><stop offset="0.171" stop-color="#ef3e2d"/><stop offset="1" stop-color="#ee202e"/></linearGradient><linearGradient id="c" x1="0.13" y1="0.274" x2="2.549" y2="1.647" xlink:href="#b"/><linearGradient id="d" x1="-0.825" y1="-0.101" x2="2.953" y2="1.702" xlink:href="#b"/></defs><g transform="translate(151.035 0)"><g class="b"><path class="c" d="M1140.978,302.507c-22.12-25.181-49.562-45.2-81.584-59.471-32-14.262-68.981-21.491-109.917-21.491s-77.856,7.228-109.709,21.5-59.209,34.289-81.307,59.461c-22.08,25.163-39.068,55.19-50.479,89.249-11.389,33.9-17.173,71.284-17.173,111.1V513.34c0,40.15,5.784,77.686,17.173,111.593,11.41,34.068,28.4,64.1,50.479,89.25,22.106,25.189,49.646,45.128,81.868,59.219,32.137,14.093,69.194,21.237,110.128,21.237,40.607,0,77.418-7.143,109.424-21.237,32.029-14.093,59.408-34.032,81.372-59.239,21.895-25.147,38.782-55.164,50.215-89.232,11.385-33.935,17.168-71.483,17.168-111.593V502.848c0-39.775-5.784-77.161-17.168-111.1-11.432-34.067-28.417-64.095-50.487-89.249" transform="translate(-690.732 -212.854)"/></g></g><g transform="translate(7.865 67.455)"><rect class="d" width="208.808" height="362.234" transform="translate(68.314 78.586)"/><rect class="e" width="89.616" height="348.251" transform="translate(68.314 92.569)"/><rect class="e" width="89.616" height="348.251" transform="translate(186.673 92.569)"/><line class="d" x2="138.515" transform="translate(103.46 66.351)"/><path class="d" d="M850.354,390.206c-1.121-9.358-17.921-14.164-17.921-14.164-99.686-6.72-154.8-78.4-154.8-78.4h.4s-55.11,71.684-154.8,78.4c0,0-16.8,4.807-17.921,14.164" transform="translate(-505.321 -297.637)"/><g transform="translate(118.57 265.059)"><ellipse class="d" cx="6.127" cy="6.127" rx="6.127" ry="6.127" transform="translate(23.4)"/><path class="d" d="M688.381,648.791s-10.827,8.2-26.042,0c0,0-7.84,5.533,0,12.584" transform="translate(-658.855 -642.664)"/></g><g transform="translate(189.787 265.059)"><ellipse class="d" cx="6.127" cy="6.127" rx="6.127" ry="6.127"/><path class="d" d="M759.007,648.791s10.827,8.2,26.042,0c0,0,7.84,5.533,0,12.584" transform="translate(-752.88 -642.664)"/></g></g><line class="f" x2="718" transform="translate(0 508.275)"/><g transform="translate(130.662 441.317)"><g transform="translate(5.156 6.7)"><path class="g" d="M682.539,826.94l-.358-.019c.01-.211.884-21.281-11.177-36.274l.281-.225C683.432,805.523,682.55,826.726,682.539,826.94Z" transform="translate(-671.004 -790.422)"/></g><path class="h" d="M684.87,822.019s6.828-2.128,9.346-8.48C694.216,813.539,687.853,814.212,684.87,822.019Z" transform="translate(-669.006 -788.986)"/><path class="h" d="M683.634,814.681s5.871-3.371,6.892-9.758C690.526,804.924,684.784,806.854,683.634,814.681Z" transform="translate(-668.725 -787.024)"/><path class="h" d="M682.074,808.357s4.563-4.016,4.323-9.788C686.4,798.569,681.691,801.3,682.074,808.357Z" transform="translate(-668.364 -785.577)"/><path class="h" d="M679.114,800.909s2.983-5.295.856-10.665C679.97,790.243,676.427,794.374,679.114,800.909Z" transform="translate(-667.466 -783.681)"/><path class="h" d="M674.274,792.812a9.468,9.468,0,0,0,1.551-7.286S673.008,788.059,674.274,792.812Z" transform="translate(-666.519 -782.607)"/><path class="h" d="M681.307,823.336s-7.079,1.019-12.086-3.631C669.221,819.7,675.255,817.572,681.307,823.336Z" transform="translate(-665.442 -790.302)"/><path class="h" d="M680.564,815.606s-6.751-.514-10.422-5.843C670.141,809.766,676.154,809.036,680.564,815.606Z" transform="translate(-665.652 -788.121)"/><path class="h" d="M679.184,809.675s-6.163-1.373-9.3-5.207A8.407,8.407,0,0,1,679.184,809.675Z" transform="translate(-665.593 -786.895)"/><path class="h" d="M676.617,802.378s-7.7-1.659-8.731-5.665C667.883,796.714,673.322,796.126,676.617,802.378Z" transform="translate(-665.138 -785.151)"/><path class="h" d="M672.326,794.127a9.479,9.479,0,0,1-6.936-2.721S669.057,790.451,672.326,794.127Z" transform="translate(-664.57 -783.92)"/><path class="h" d="M669.819,788.771a8.538,8.538,0,0,0-5.491-7.025S664.486,786.276,669.819,788.771Z" transform="translate(-664.328 -781.746)"/><path class="i" d="M681.069,830.956s-11.511,24.438,0,27.981H685.9c11.512-3.543,0-27.981,0-27.981Z" transform="translate(-666.975 -792.953)"/></g><g transform="translate(155.872 201.009)"><g transform="translate(81.551)"><path class="j" d="M845.526,628.564s.185-47.788-1.291-61.816a114.245,114.245,0,0,1,0-24.788l3.5-3.129,8.224-4.484,22.572,5.648,10.141,21.392-1.843,42.792-9.22,32.628-7.486,4.943H830.967Z" transform="translate(-809.038 -485.097)"/><g transform="translate(39.019 13.002)"><path class="k" d="M881.778,531.79c5.6-.324,11.962-.512,16.842,2.575a38.963,38.963,0,0,0-.591-9.435c-1.13-6.343-2.23-8.337-3.909-14.558-.5-1.837-1.182-15.884-2.594-16.529-1.94-.885-6.007,7.68-6.712,9.037l-4.2,8.07c-2.218,4.267-4.474,8.652-5.044,13.426a15.322,15.322,0,0,0,1.97,9.778A5.154,5.154,0,0,1,881.778,531.79Z" transform="translate(-858.188 -488.86)"/><path class="l" d="M973.384,547.862a15.84,15.84,0,0,1,.314-3.4,1.23,1.23,0,0,1,2.162-.426,9.393,9.393,0,0,1,1.2,2.19,2.123,2.123,0,0,0,.757,1.182,1.791,1.791,0,0,0,1.728-.285c3.438-2.044,5.588-5.548,7.344-9.216a1.374,1.374,0,0,1,2.588.307c.027.127.052.254.078.381.732,3.61,1.411,7.59-.412,10.79a15.438,15.438,0,0,1-3.623,3.895l-7.809,6.655c-2.613,2.227-4.166,4.8-6.791,1.276C967.814,557.035,973.16,552.486,973.384,547.862Z" transform="translate(-879.708 -498.731)"/><path class="m" d="M884.8,540.152s7.106,22.151,6,44.971c-.566,11.672-9.127,57.948-9.127,57.948H895.2s7.221-13.692,11.37-47.43l.138-4.03s4.749,7.463,13.092,6.227,20.515-10.641,31.3-24.194l2.766-5.255a6.646,6.646,0,0,1-7.422-2.766,9.864,9.864,0,0,1-1.29-8.852l-23.512,16.043S912.1,555.526,905.6,548.058,887.166,540.238,884.8,540.152Z" transform="translate(-859.604 -499.421)"/><path class="n" d="M880.106,538.967a21.668,21.668,0,0,1-1.138-7.888,9.563,9.563,0,0,1-.876-2.621c-4.864-1.7-9.6-3.531-14.478-1.863a12.911,12.911,0,0,0-3.373,1.646c-.816.585-.88,3.92-1.456,4.742.2,4.121,2.5,7.924,5.526,10.726a41.19,41.19,0,0,0,10.466,6.513,21.5,21.5,0,0,0,4.8-7.715,16.549,16.549,0,0,0,.81-2.948A5.872,5.872,0,0,1,880.106,538.967Z" transform="translate(-854.391 -496.184)"/><path class="l" d="M881.265,518.591a9.364,9.364,0,0,1-5.372,5.169,15.726,15.726,0,0,1-6.706,1.178,13.988,13.988,0,0,1-5.516-1.778,20.948,20.948,0,0,1-10.161-22.146,12.237,12.237,0,0,1,.883-2.726,12.815,12.815,0,0,1,2.119-3.013,24.684,24.684,0,0,1,21.923-7.566c13.708,2.186,6.771,22.038,3.318,29.837Q881.514,518.088,881.265,518.591Z" transform="translate(-853.096 -487.41)"/><path class="o" d="M932.05,584.079a16.744,16.744,0,0,0-3.429,7.726,23.832,23.832,0,0,1-.722,4.02" transform="translate(-870.131 -509.424)"/></g><path class="k" d="M834.494,486.8a33.3,33.3,0,0,1,7.384-10.115c7.126-6.316,16.462-7.249,25.717-5a13.669,13.669,0,0,1,6.815,3.377c2.116,2.21,2.831,5.444,2.772,8.5a7.382,7.382,0,0,1-.675,3.305c-1.187,2.263-4.015,3.077-6.563,3.271-6.391.487-13.992-4.42-19.287,1.462a8.689,8.689,0,0,0-2,3.9c-.309,1.379.041,2.937-.729,4.194a.644.644,0,0,1-1.042.1c-.836-1.011-2.251-1.962-3.5-1.148a2.8,2.8,0,0,0-1.127,2.477,5.986,5.986,0,0,0,.917,2.667c1.471,2.546,3.569,5.068,4.462,7.889,1.653,5.22-.649,10.114-5.031,13.4-3.843,2.877-9.612,1.872-14.024,3.762-7.007,3-12.634,13.288-14.175,20.753-.6-1.191-1-1.744-1.55-2.958-2.236-4.975-4.01-10.754-2.837-16.232a7.161,7.161,0,0,0,.364-1.568c-.025-1.233-1.9-.131-2.371.147-1.354.8-2.4,2.009-3.679,2.935a18.63,18.63,0,0,0-1.76,1.46c.222-1.327.2-2.691.519-4a20.937,20.937,0,0,1,1.467-4.111,24.224,24.224,0,0,1,5.219-7.077q.851-.807,1.771-1.541c4.047-3.229,9.112-5.06,12.936-8.551,5.448-4.976,7.582-12.519,9.474-19.651Z" transform="translate(-802.571 -470.574)"/><path class="l" d="M886.811,609.65a.809.809,0,0,1,.52-.08c.411.119.41.7.274,1.109a5.58,5.58,0,0,1-2.828,3.212,18.052,18.052,0,0,0,9.9,1.9,7.1,7.1,0,0,1-7.494,5.471c-2.3-.263-4.282-1.646-6.4-2.582a17.249,17.249,0,0,0-7.93-1.425c-1.13.064-3.8.623-3.569-1.237.161-1.263.1-4.751,1.063-5.214,1.938-.933,6.123,1.23,8.247,1.367a8.982,8.982,0,0,0,4.471-.428C884.387,611.172,885.479,610.191,886.811,609.65Z" transform="translate(-817.762 -502.224)"/><path class="p" d="M873.4,610.072a6.694,6.694,0,0,1-1.67,1.195c-2.148,1.426-2.909,4.209-3.154,6.775a10.052,10.052,0,0,0-4.737-.917c-.151.008-.332.006-.418-.12a.444.444,0,0,1-.049-.256c.029-2.5-.586-6.333,2.251-7.625C867.133,608.435,873.014,610.55,873.4,610.072Z" transform="translate(-816.408 -502.094)"/><path class="q" d="M848.316,537.016s-1.233,1.511-7.871,2.807S819.7,544.915,815.828,561s-1.936,27.422,0,30.742,9.958,10.511,40.107,11.341c0,0-3.319-5.808,0-8.575s5.29-1.936,5.29-1.936a72.844,72.844,0,0,0-10.269-3.6c-3.217-.819-2.95-1.937-2.95-1.937s-.469-26.506-1.556-33.231C845.229,546.255,848.316,537.016,848.316,537.016Z" transform="translate(-805.081 -485.705)"/><path class="r" d="M819.733,655.779a3.216,3.216,0,0,0,.871,1.6c3.63,4.37,19.994,1.451,22.279-5.769,3.265-10.764,6.122-22.733,5.526-33.965-.04-.765-8.9-3.754-9.97-4.2-2.264-.939-4.664-2.222-7.023-.834-1.993,1.174-2.7,3.75-3.314,5.8C827.33,620.991,819.45,653.247,819.733,655.779Z" transform="translate(-806.477 -502.782)"/><g transform="translate(20.705 87.225)"><path class="s" d="M829.381,594.266c6.073.146,14.422,3.766,19.915,6.361" transform="translate(-829.381 -585.967)"/><path class="s" d="M835.112,592.094a72.535,72.535,0,0,1,.829-8.574" transform="translate(-830.686 -583.52)"/></g></g><g transform="translate(0 78.326)"><g transform="translate(135.707 30.151)"><path class="t" d="M9.491,0H76.409A9.491,9.491,0,0,1,85.9,9.491V50.665a0,0,0,0,1,0,0H0a0,0,0,0,1,0,0V9.491A9.491,9.491,0,0,1,9.491,0Z"/><path class="j" d="M931.683,671.867H920.7L919,657.361a1.7,1.7,0,0,1,1.7-1.7h11a1.7,1.7,0,0,1,1.7,1.7Z" transform="translate(-883.241 -621.201)"/></g><path class="j" d="M921.632,639.6h9.68l-4.878-8.533Z" transform="translate(-748.134 -585.449)"/><g transform="translate(0 80.518)"><rect class="u" width="355.204" height="12.18"/><rect class="u" width="330.211" height="136.311" transform="translate(10.431 12.111)"/></g><g transform="translate(24.066)"><line class="v" x2="8.636" y2="44.087" transform="translate(4.696 35.148)"/><ellipse class="w" cx="1.818" cy="1.818" rx="1.818" ry="1.818" transform="translate(2.878 29.543)"/><ellipse class="w" cx="1.818" cy="1.818" rx="1.818" ry="1.818" transform="translate(39.239)"/><line class="v" y1="23.786" x2="31.815" transform="translate(6.515 4.545)"/><line class="v" x2="3.03" y2="3.03" transform="translate(42.874 4.545)"/><path class="x" d="M805.039,584.228l-15.058,15.058-3.818-18.994Z" transform="translate(-741.35 -573.886)"/><rect class="x" width="25.452" height="3.7" transform="translate(0 75.902)"/></g></g><g transform="translate(47.44 140.114)"><path class="y" d="M758.4,670.739a14.7,14.7,0,1,1,29.4,0" transform="translate(-758.401 -652.924)"/><ellipse class="w" cx="1.387" cy="1.387" rx="1.387" ry="1.387" transform="translate(13.312)"/></g></g><g transform="translate(348.405 205.742)"><g transform="translate(0 46.763)"><path class="l" d="M993.452,590.123c2.84-6.964,5.736-13.9,8.517-20.895,1.325-3.332,2.64-6.669,3.875-10.043,1.732-4.734,4-12.375.719-18.032a11.18,11.18,0,0,0-2.189-2.7l-.033-.034a4.186,4.186,0,0,0-6.178.43l-6.475,7.995a4.271,4.271,0,0,0-.87,1.847c-.932,4.649-1.763,9.331-2.621,14q-.887,4.835-1.86,9.642c-.534,2.654-.934,5.46-2.284,7.761-.044.075-.135.2-.248.348-2.3,3.028-18.313,20.706-24.167,27.153a5.274,5.274,0,0,1-1.713.578c-1.052.042-6.731.826-7.264,1.969s-5.282,7.2-4.227,8.073c.568.466,1.033-.01,1.321-.5s3.935-4.8,4.488-4.912c0,0-2.927,4.979-1.823,6.281s2.332.933,3.18,1.116,2.411,1.029,3.643.3,5.326-6.143,6.4-7.07c.09-.077.2-.179.314-.276,5.606-4,26.244-18.853,29.176-22.543A2.308,2.308,0,0,0,993.452,590.123Z" transform="translate(-946.28 -537.257)"/></g><path class="z" d="M1046.163,761.828c-6.523-18.459-18.715-49.557-30.456-61.208l24.033-77.714s-20.542,2.458-34.31-5.087c0,0-12.021,52.735-13.663,74.568a10.935,10.935,0,0,0,1.383,6.313l42.018,70.757,8.557,14.41,7.245-7.713S1049.169,770.331,1046.163,761.828Z" transform="translate(-956.632 -508.84)"/><g transform="translate(57.236 30.232)"><path class="n" d="M1037.885,529.523c.334.385-3.115,4.109-3.389,4.389-2.569,2.62-6.1,4.935-9.853,5.221a4.465,4.465,0,0,1-3.229-.893,3.345,3.345,0,0,1-.573-4.109c.751-1.409,2.26-2.2,2.619-3.814a18.406,18.406,0,0,0,.466-4.2c0-.24-.209-1.485,0-1.634l12.127-8.636S1035.542,526.825,1037.885,529.523Z" transform="translate(-1020.394 -515.851)"/></g><g transform="translate(48.799 3.949)"><path class="l" d="M1024.212,519.847c-1.9.287-7.28.667-12.172-10.971-5.975-14.219-.416-23.231,5.318-25.79s11.667-1.519,16.206,5.645c0,0,3.389,5.614,1.776,17.06S1026.246,519.539,1024.212,519.847Z" transform="translate(-1009.469 -481.818)"/></g><path class="aa" d="M1040.263,620.334l-35.746-2.515-7.945,88.219c0,10.931-1.642,21.749-2.9,32.578-1.578,13.541-2.277,24.2-4.393,37.673-.515,3.28-.784,9.631-1.552,12.873l11.631,2.46s2.315-7.755,5.1-18.543c4.759-18.427,20.944-50.587,21.994-59.516C1026.45,713.563,1049.3,650.888,1040.263,620.334Z" transform="translate(-955.718 -508.84)"/><g transform="translate(10.595 280.322)"><path class="ab" d="M993.775,839.688s-6.539,1.153-8.523.68a35.475,35.475,0,0,0-3.842-.68s1.182,10.352-2.932,12.124c-3.12,1.345-7.344.382-10.654.656a11.52,11.52,0,0,0-5.518,1.518c-1.318.89-2.658,2.91-2.222,4.624.578,2.274,3.933,2.6,5.826,2.952a45.648,45.648,0,0,0,12.566.619c5.323-.516,14.011.977,15.3-2.96S993.265,841.641,993.775,839.688Z" transform="translate(-960 -839.688)"/></g><g transform="translate(83.468 262.906)"><path class="ab" d="M1063.5,817.136s-2.806,4.825-4.464,6.014a35.415,35.415,0,0,0-3.031,2.456s3.339,8.5,1.981,12.768-5.877,13.539-2.227,15.45,10.681-7.116,12.113-11.5,8.456-12.1,6.328-15.653S1064.637,818.8,1063.5,817.136Z" transform="translate(-1054.362 -817.136)"/></g><path class="ac" d="M1032.473,532.32s-14.667,12.742-14.173,2.586l-8,1.968a3.053,3.053,0,0,0-2.316,2.732l-.35,14.821a180.329,180.329,0,0,1-6.449,43.836c-2.582,9.332-3.008,12.512.782,16.8h0l42.257,6.435S1061.221,531.015,1032.473,532.32Z" transform="translate(-958.328 -489.366)"/><path class="ad" d="M1026.071,653.648s1.231,11.846,11.571,12.073" transform="translate(-964.451 -516.999)"/><path class="ac" d="M1014.406,537.072s-13.024,0-13.024,18.927l9.3,4.159S1017.766,539.061,1014.406,537.072Z" transform="translate(-958.829 -490.451)"/><line class="ad" y1="11.796" x2="2.279" transform="translate(48.347 54.82)"/><path class="ad" d="M1036.085,537.257s-6.217,8.354-14.8,3.417" transform="translate(-963.362 -490.494)"/><line class="ae" x1="2.718" y1="9.054" transform="translate(72.972 57.562)"/><path class="k" d="M1027.4,487.827s-9.9,11.552-19.6,6.394a14.892,14.892,0,0,1-7.93-12.554,1.722,1.722,0,0,1,2.773-1.474h0l.636-2.117a1.717,1.717,0,0,1,2.384-1.063c1.955.94,5.183,2.208,7.946,1.943,4.3-.413,11.52-4.126,16.265-1.032s3.713,4.332,3.713,4.332,3.507-.619,3.507,6.189-.206,11.759-4.125,16.3C1032.968,504.742,1030.7,486.8,1027.4,487.827Z" transform="translate(-958.483 -476.704)"/><g transform="translate(72.238 18.021)"><ellipse class="l" cx="2.024" cy="3.461" rx="2.024" ry="3.461" transform="translate(0 0.144) rotate(-2.04)"/></g><g transform="translate(63.62 10.639)"><path class="k" d="M1114.972,492.293s4.544,2.054.206,7.086-6.428.079-10.619,4.049,1.826,16.847,6,28.654,14.084,16.553,4.8,25.171-16.207,1.253-18.47-6.343,10.268-18.245,1.93-29.027S1095.086,484.889,1114.972,492.293Z" transform="translate(-1043.738 -490.597)"/><g transform="translate(11.455 47.487)"><path class="af" d="M1099.229,553.21c-2.152-1.995-10.023-2.834-12.869,7.5s-11.457,31.015-12.872,32.871-29.994,28.273-29.994,28.273l3.905,4.1s31.275-19.762,32.95-22.62,19.457-32.708,19.642-34.722S1104.658,558.24,1099.229,553.21Z" transform="translate(-1043.494 -551.97)"/></g><g transform="translate(86.601 257.928)"><path class="ag" d="M1151.566,824.467s-1.915,4.36-3.407,5.244a4.814,4.814,0,0,1-3.16.52s2.609,8.78,1.143,12.294-7.489,12.682-4.54,14.571,11.081-6.888,12.618-10.491,8.058-9.619,6.519-12.786S1152.408,825.962,1151.566,824.467Z" transform="translate(-1140.799 -824.467)"/></g><path class="ah" d="M1128.455,633.118s-19.844,2.374-33.143-4.914c0,0-11.612,50.941-13.2,72.03a10.564,10.564,0,0,0,1.336,6.1L1132.3,788.6l7-7.45s-17.5-56.526-34.065-72.965Z" transform="translate(-1040.827 -521.844)"/><path class="af" d="M1081.008,719.669c.6-8.551,10.416-33.851,14.778-53.09l-.008.031c.2-.883-6.253-38.406-6.253-38.406l14.126,4.914,20.4-2.485s5.962,15.766,3.636,36.821-26.3,63.362-26.3,63.362c-1.4,17.816-36.388,72.835-36.388,72.835l-8.332-2.3Z" transform="translate(-1035.04 -521.844)"/><path class="ai" d="M1094.013,614.374c.188-4.261-.125-8.714.055-10.335,2.268-20.429.507-16.335-1.214-19.386-3.94-6.984-6.382-6.785-4.278-13.133,1.847-5.573,10.876-16.59,12.537-18.76s5.833-6.415,5.833-6.415,2.165-5.719,1.35-9.232l11.474-6.4s-.1,6.794.351,8.936c0,0,.341,3.088,1.54,4.252s11.119,2.979,13.608,5.991-1.141,19.718-2,24.22-5.3,14.072-5.013,17.307a85.847,85.847,0,0,0,3.019,14.129c.234.6.595,1.7,1.01,3.03C1120.931,615.008,1107.089,616.727,1094.013,614.374Z" transform="translate(-1042.129 -499.642)"/><g transform="translate(62.636 30.292)"><path class="ah" d="M1126.663,543.672c.323.372-3.01,3.209-3.274,3.478-2.482,2.531-5.889,4.767-9.518,5.044a4.31,4.31,0,0,1-3.118-.863,3.229,3.229,0,0,1-.554-3.969c.726-1.361,2.183-2.125,2.529-3.685a17.716,17.716,0,0,0,.45-4.054c0-.232-.2-1.435,0-1.579l11.714-8.341S1124.4,541.065,1126.663,543.672Z" transform="translate(-1109.767 -529.704)"/></g><g transform="translate(54.486 4.903)"><path class="af" d="M1113.455,533.564c-1.834.277-7.032.644-11.758-10.6-5.772-13.736-.4-22.44,5.137-24.913s11.27-1.467,15.655,5.452c0,0,3.274,5.423,1.715,16.48S1115.419,533.267,1113.455,533.564Z" transform="translate(-1099.213 -496.828)"/></g><path class="aj" d="M1082.319,636.423s-45.865,123.308-45.865,142.225h0a242.448,242.448,0,0,0,79.666-1.4l12.872-2.378s26.764-124.281-8.406-143.331C1120.587,631.539,1095.777,637.441,1082.319,636.423Z" transform="translate(-1030.436 -522.603)"/><path class="k" d="M1118.273,496.157s-7.151,12.732-17.859,16.387a5.586,5.586,0,0,1-7.077-6.866C1095.393,498.48,1101.3,489.693,1118.273,496.157Z" transform="translate(-1043.34 -491.26)"/><path class="ad" d="M1094.343,599.734s8.373,1.239,11.911-2.793c0,0,6.211,3.308,15.547,1.456" transform="translate(-1043.619 -514.724)"/><path class="ad" d="M1108.36,558.134s.076,2.024,5.642,1.313a13.943,13.943,0,0,0,8.281-3.735" transform="translate(-1046.811 -505.335)"/><line class="ad" y1="85.517" x2="30.567" transform="translate(24.401 129)"/><line class="ad" y1="69.744" x2="8.404" transform="translate(57.948 136.115)"/><line class="ad" y1="56.134" x2="1.466" transform="translate(79.828 126.509)"/><g transform="translate(77.273 41.731)"><g transform="translate(0.91)"><path class="af" d="M1136.81,544.529c-2.922-.277-9.685,3.834-5.671,13.775s9.727,31.6,9.73,33.934-6.666,40.675-6.666,40.675l5.594.89s12.852-34.691,12.448-37.979-4.4-37.8-5.475-39.515S1144.177,545.23,1136.81,544.529Z" transform="translate(-1129.899 -544.516)"/></g><g transform="translate(0 82.712)"><path class="af" d="M1135.365,652.3a13.016,13.016,0,0,1-1.888,3.21c-.764.615-4.642,4.42-4.538,5.713s-.771,9.195.394,9.373c.626.1.764-.576.762-1.166s.823-6.352,1.185-6.756c0,0,0,5.957,1.4,6.487s2.142-.466,2.853-.772,2.243-.426,2.837-1.745,1.268-8.291,1.66-9.69,1.325-5.041,1.166-5.292S1135.365,652.3,1135.365,652.3Z" transform="translate(-1128.72 -651.619)"/></g></g><path class="k" d="M1102.015,495.682s-3.224,3.8,2.853,6.489,5.841-2.685,11.329-.9,5.573,16,6.862,28.46-5.626,20.993,6.458,24.8,15.179-5.818,13.966-13.65-17.1-12.079-14.19-25.4S1116.806,480.466,1102.015,495.682Z" transform="translate(-1045.171 -490.48)"/><g transform="translate(0 274.029)"><path class="ag" d="M1061.469,848.54s-5.344.122-6.85-.737a9.8,9.8,0,0,1-2.663-2.488s-5.689,6.615-9.468,7.083-13.644.252-13.824,3.749,9.967,6.579,13.858,6.13,12.77,1.395,14.759-1.51S1060.587,850.012,1061.469,848.54Z" transform="translate(-1028.661 -845.315)"/></g></g><g transform="translate(69.638 43.742)"><path class="l" d="M1063.336,583.516c-1.1-7.44-2.138-14.885-3.3-22.32-.555-3.542-1.122-7.084-1.777-10.617-.919-4.956-2.86-12.686-8.561-15.888a11.2,11.2,0,0,0-3.257-1.207l-.046-.012a4.186,4.186,0,0,0-5.1,3.515l-1.5,10.177a4.267,4.267,0,0,0,.192,2.033c1.565,4.476,3.233,8.93,4.873,13.389q1.7,4.614,3.306,9.246c.891,2.556,1.976,5.175,1.985,7.843a4.181,4.181,0,0,1-.036.426c-.438,3.776-5.223,27.145-6.981,35.674a5.275,5.275,0,0,1-1.18,1.369c-.884.572-5.374,4.136-5.25,5.394s-.88,8.89.472,9.1c.726.113.884-.534.881-1.106s.945-6.132,1.362-6.512c0,0,.015,5.775,1.629,6.334s2.481-.384,3.3-.658,2.6-.341,3.287-1.6,1.457-8,1.908-9.341c.038-.112.085-.259.13-.4,2.787-6.3,12.993-29.586,13.638-34.255A2.3,2.3,0,0,0,1063.336,583.516Z" transform="translate(-1036.454 -533.345)"/></g><path class="ac" d="M1042.641,557.75s-10.453-17.647-.412-24.664,17.194,10.929,19.249,19.955Z" transform="translate(-967.138 -489.182)"/><g transform="translate(171.924 8.04)"><path class="ak" d="M1188.344,858.324s5.065,1.75,8.962-.49,11.379-5.641,14.023-5.666c0,0-1.442-4.411-1.472-4.9s-.188-2.817-.188-2.817l-6.54-1.048s-4.242,6.228-6.112,7.693A106.288,106.288,0,0,0,1188.344,858.324Z" transform="translate(-1173.329 -568.251)"/><path class="al" d="M1227.747,550.276s-12.266,3.6-11.513,20.274S1227.747,550.276,1227.747,550.276Z" transform="translate(-1179.673 -501.498)"/><g transform="translate(22.475 48.778)"><path class="af" d="M1224.732,550.276s-.946,1.287.237,9.583-1.059,11.763-1.326,15.216-4.318,25.75-4.427,26.735-.653,12.852-2.233,16-13.187,21-13.343,21.888-5.637-3.108-5.637-3.108,10.422-21.685,11.1-23.821c.839-2.656,3.405-9.232,3.563-12.673.385-8.412-.379-27.948-.083-32.2C1213.136,559.927,1219.416,551.542,1224.732,550.276Z" transform="translate(-1198.004 -550.276)"/></g><g transform="translate(27.095 121.036)"><path class="al" d="M1210.228,651.752s2.481-4.244,2.168-6.112-5.6-1.8-5.6-1.8l-2.806,2.226Z" transform="translate(-1203.987 -643.842)"/></g><g transform="translate(18.591 119.967)"><path class="af" d="M1207.954,642.458s-1.826,4.012-2.9,4.261-2.364,1.588-3.289,2-3.835.632-4.617,1.392c-.32.31-1.545,2.986-2.262,3.549s-2.3,1.523-1.814,2.126,2.141.13,2.141.13a1.178,1.178,0,0,0-.355,1.218c.518,1.3,1.388,1.355,1.388,1.355s-.278.974.073,1.456a2.336,2.336,0,0,0,1.618,1.1,2.229,2.229,0,0,0,.748,1.34,1.984,1.984,0,0,0,1.931.322s.864,1.195,1.663.963a7.17,7.17,0,0,0,1.832-1.177,27.231,27.231,0,0,0,6.025-9.216,32.86,32.86,0,0,1,4.022-7.769Z" transform="translate(-1192.975 -642.458)"/></g><rect class="am" width="34.555" height="57.665" transform="translate(66.553 124.021) rotate(129.045)"/><g transform="translate(20.319 129.107)"><path class="af" d="M1195.941,658.078s3.474-3.857,5.2-3.784.55,1.535.55,1.535,1.142-1.464,2.373-.688-.237,2.414-.237,2.414a1.429,1.429,0,0,1,2.066.339c.91,1.219-.608,2.3-.608,2.3s2.291-.337,1.8,1.533c-.829,3.157-4.207,4.732-4.207,4.732a1.735,1.735,0,0,1-1.83-.955,2,2,0,0,1-2.735-1.659s-2.536-.616-1.74-2.615C1196.576,661.232,1193.991,660.266,1195.941,658.078Z" transform="translate(-1195.213 -654.293)"/></g><path class="af" d="M1259.88,635.657s6.531,8.324,8.836,13.831,6.147,17.578,5.635,26.927-3.586,26.894-2.69,30.865,1.792,12.166,2.753,14.984,4.8,11.013,5.187,19.467-5.379,45.592-5.123,49.049-6.531,1.409-6.531,1.409-2.305-33.554-3.586-39.316-2.818-25.358-3.97-26.766-4.3-16.008-3.817-18.314-12.576-36.884-13.344-43.8-20.03-28.335-20.03-28.335A59.875,59.875,0,0,1,1259.88,635.657Z" transform="translate(-1181.267 -520.29)"/><path class="af" d="M1225.542,635.021a39.153,39.153,0,0,1-.718,4.77c-.384,1.28-9.221,33.937-10.117,46.488a247.134,247.134,0,0,1-3.586,25.877c-.384,2.682.385,11.647,1.153,13.952s-2.563,64.229-2.947,65.509,3.06,3.111,5.493,2.726,13.462-48.9,12.694-55.557-1.537-20.859.64-26.63,21.772-47.521,21.9-50.082S1258.532,615.394,1225.542,635.021Z" transform="translate(-1178.101 -519.654)"/><path class="af" d="M1279.47,833.431s-.632,4.421-1.321,5.627-2.584,7.35-3.445,8.5-2.756,9.762,0,10.795,9.245,2.756,11.427-.689a14.17,14.17,0,0,0,2.125-9.531c-.344-2.642-2.965-14.763-2.928-15.963S1279.47,833.431,1279.47,833.431Z" transform="translate(-1192.668 -565.618)"/><path class="an" d="M1275.558,849.1s-.3,6.693,4.757,6.693,7.292-6.09,7.292-6.09,1.722,2.989,0,9.363-8.9,5.053-10.508,4.823S1267.872,861.644,1275.558,849.1Z" transform="translate(-1192.422 -569.55)"/><path class="an" d="M1202.729,839.275s-3.572,6.39-5.693,7.684c-2.644,1.612-7.774,6.788-9.565,7.027s-8.234,1.382-6.99,5.018c1.019,2.98,16.384,2.552,18.116,1.059s6.915-6.854,9.005-6.734,1.314,7.731,1.314,7.731h2.27s.793-7.406.889-8.68c.283-3.769-2.4-6.542-2.525-8.693s-.243-3.756-.243-3.756Z" transform="translate(-1171.503 -567.312)"/><path class="aa" d="M1216.793,635.5s-1.825,7.588-2.5,9.8c-.636,2.093-16.162,64.14-18.707,88.914a8.749,8.749,0,0,0,2.964,7.523c7.208,6.232,26.2,18.147,75.669-10.552,0,0-3.735-59.182-7-70.324s-9.178-21.567-13.639-24.781C1249.611,633.215,1216.793,635.5,1216.793,635.5Z" transform="translate(-1174.969 -520.709)"/><path class="ao" d="M1217.3,570.524c.288,4.515,2.135,7.4,2.52,9.038s0,5.379.48,9.124,1.921,21.612,1.44,26.7,34.941,2.792,37.631,1.255c0,0-5.967-10.667-6.126-15.086-.056-1.518-.961-6.243,1.537-9.7,1.318-1.825,3.763-7.634,6.2-11.881h0c.947-1.649,1.938-3.291,2.629-4.513h0a17.041,17.041,0,0,0,1.4-3.488s1.576-19.595-2.746-21.8a22.025,22.025,0,0,0-10.854-2.786,30.653,30.653,0,0,1-7.011-1.056l-9.893,1.056a22,22,0,0,1-5.988,1.828c-2.5.192-5.548,5.616-7.059,9.547C1220.229,562,1217.017,566.01,1217.3,570.524Z" transform="translate(-1179.921 -500.599)"/><path class="af" d="M1267.666,548.655s7.829.649,10.773,7.846,2.7,14.5,3.335,17.161,1.572,18.054,2.243,20.33a128.361,128.361,0,0,1,3.491,21.355c.515,8.528-.755,26.516-.755,26.516l-4.34-2.109s-3.862-26.671-5.537-32.31c-1.432-4.821-1.43-13.023-2.234-15.985s-5.721-20.783-6.512-22.587C1266.913,566.1,1260.937,548.566,1267.666,548.655Z" transform="translate(-1190.677 -501.129)"/><path class="ah" d="M1251.486,546.826s-2.362,14.458-11.1,12.825-2.111-12.227-2.111-12.227S1242.154,544.171,1251.486,546.826Z" transform="translate(-1184.151 -500.475)"/><path class="af" d="M1286.637,665.672a38.284,38.284,0,0,1-1.769,4.592c-.527,1.124-1.314,8.7-1.344,9.683-.025.827.558.381.878-.141.184-.3.878-2.886,1.469-4.244.5-1.141.88-1.552,1.059-1.157a25.706,25.706,0,0,1-.418,7.351c-.6,2.05-.5,6.888.651,6.276s4.369-9.1,4.4-12.392a42.922,42.922,0,0,0-.832-7.475Z" transform="translate(-1195.005 -527.777)"/><path class="k" d="M1245.671,487.184s17.394-2.606,19.242,24.111c1.287,18.619,8.611,25.653,18.03,36.348,4.824,5.478,5.2,12.844-16.347,8.493-10.067-2.033-14.441-7.442-14.75-17.708Z" transform="translate(-1186.385 -487.114)"/><path class="af" d="M1242.334,489.6c-4.4-.72-14.455.382-17.306,11.925a36.7,36.7,0,0,0,.475,5.769c.483,2.569-2.578,9.631-2.039,10.058a16.135,16.135,0,0,0,2.885,1.163s1.664,8.288,4.478,8.541,13.688-.726,19.828-10.1S1260.086,492.507,1242.334,489.6Z" transform="translate(-1181.313 -487.641)"/><path class="af" d="M1238.394,531.789s.217,1.16.419,2.868c.1.872.2,1.887.267,2.962.175,2.975.085,6.418-.931,8.6,0,0,5.517,3.355,11.422-4.851,0,0-.584-10.185,2.807-15.6S1238.394,531.789,1238.394,531.789Z" transform="translate(-1184.672 -495.585)"/><path class="k" d="M1225.508,501.014s6.617,5.713,13.626,7.516,10.719,9.675,10.719,9.675,12.4-12.369,4.917-24.373S1225.52,487.182,1225.508,501.014Z" transform="translate(-1181.793 -487.129)"/><path class="ah" d="M1239.008,536.484c.1.872.2,1.887.267,2.962a30.964,30.964,0,0,0,9.589-7.11C1245.229,534.936,1239.008,536.484,1239.008,536.484Z" transform="translate(-1184.867 -497.412)"/><path class="k" d="M1244.821,514.91s5.827,19.748,6.2,24.233c0,0,3.907-.97,10.664,1.1C1261.683,540.24,1258.416,505.847,1244.821,514.91Z" transform="translate(-1186.191 -493.098)"/><path class="ad" d="M1219.633,643.842l-19.009,87.422s-5.577,11.956,10.825,16.018" transform="translate(-1175.918 -522.806)"/><path class="ad" d="M1228.805,553.559l-7.028,14.639s-2.769,5.584,1.255,10.051" transform="translate(-1180.732 -502.246)"/><path class="ad" d="M1225.432,632.8s-5.4,6.737,33.1,2.193" transform="translate(-1181.716 -520.29)"/></g></g><g transform="translate(336.55 67.455)"><g transform="translate(46.059)"><path class="ap" d="M990.571,383.5l10.207-10.207,10.207,10.207Z" transform="translate(-990.571 -314.867)"/><line class="aq" y1="58.43" transform="translate(10.207)"/><g transform="translate(31.169)"><path class="ap" d="M1030.931,383.5l10.207-10.207,10.207,10.207Z" transform="translate(-1030.931 -314.867)"/><line class="aq" y1="58.43" transform="translate(10.207)"/></g></g><g transform="translate(59.308)"><path class="ap" d="M1007.727,417.406l12.543-12.543,12.542,12.543Z" transform="translate(-1007.727 -322.056)"/><line class="ar" y1="82.808" transform="translate(12.543)"/></g><line class="aq" x2="143.7"/></g></svg>